<svg width="45" height="56" viewBox="0 0 45 56" fill="none" xmlns="http://www.w3.org/2000/svg">
<path d="M0.00902752 2.43397C0.014291 5.91112 1.09327 9.32385 3.13424 12.3187C5.17519 15.3135 8.10392 17.7816 11.6171 19.4673C9.77588 20.3513 8.08651 21.4538 6.59806 22.7429C3.25895 25.6305 1.0534 29.3541 0.29353 33.3866C-0.466345 37.4191 0.257935 41.5565 2.36387 45.213C4.4698 48.8696 7.85074 51.8603 12.0283 53.762C16.2058 55.6634 20.9683 56.3798 25.6419 55.8091C30.3155 55.2384 34.6637 53.4102 38.0708 50.5826C41.478 47.755 43.7714 44.0717 44.6271 40.0535C45.4828 36.0354 44.8572 31.8861 42.8386 28.1927C40.8203 24.4994 37.5111 21.4491 33.3799 19.4734C36.8978 17.7901 39.8306 15.322 41.874 12.3257C43.9174 9.32936 44.9968 5.91404 44.9999 2.4345C44.9999 2.11481 44.9273 1.79823 44.7859 1.50286C44.6449 1.20749 44.4377 0.939104 44.1766 0.713035C43.9153 0.486966 43.6052 0.307644 43.264 0.185312C42.9231 0.0629799 42.5574 3.44338e-05 42.188 6.92397e-05C39.2326 -0.0067753 36.3047 0.493897 33.5745 1.47311C30.844 2.45232 28.365 3.89062 26.281 5.70477C24.792 6.9933 23.5185 8.45576 22.4974 10.0496C20.5517 7.00718 17.701 4.47089 14.2411 2.70392C10.7812 0.936939 6.83805 0.00363857 2.82091 0.000861566C2.45173 0.000791977 2.08615 0.0636732 1.74504 0.18591C1.40393 0.308147 1.09397 0.487348 0.832862 0.713281C0.571756 0.939215 0.364613 1.20746 0.223259 1.50269C0.0819045 1.79793 0.00910789 2.11438 0.00902752 2.43397ZM25.6028 16.7881C26.2289 13.8928 27.8513 11.229 30.2572 9.14619C32.6631 7.06335 35.7403 5.65873 39.0847 5.11663C38.454 8.01007 36.8298 10.6716 34.425 12.7538C32.0198 14.8359 28.9452 16.2419 25.6028 16.7881ZM34.4287 26.1901C36.8353 28.2703 38.4586 30.9326 39.0847 33.8264C35.744 33.2796 32.6708 31.8741 30.2667 29.7929C27.8625 27.7116 26.2387 25.0515 25.6071 22.1595C28.9501 22.7015 32.0253 24.1066 34.4287 26.1901ZM10.5741 26.1853C13.0966 23.9902 16.3648 22.5519 19.9001 22.0813C20.5627 26.3047 22.8067 30.2236 26.2881 33.2375C29.7695 36.2513 34.2961 38.194 39.175 38.7678C38.764 41.0465 37.7354 43.2086 36.1734 45.0769C34.6117 46.9451 32.5609 48.4669 30.189 49.5171C27.8172 50.5675 25.1918 51.1167 22.5276 51.1199C19.8635 51.1228 17.2364 50.5799 14.8613 49.5351C12.4863 48.4902 10.4307 46.9735 8.86305 45.1086C7.29534 43.2441 6.26001 41.0844 5.8418 38.8068C5.42357 36.5292 5.63437 34.1981 6.45688 32.0045C7.27942 29.8109 8.69032 27.8173 10.5741 26.1864V26.1853ZM5.92232 5.12007C9.26329 5.66678 12.3364 7.07249 14.7407 9.15377C17.1449 11.2351 18.7687 13.8954 19.4003 16.7875C16.0595 16.2407 12.9866 14.8349 10.5826 12.7536C8.17854 10.6723 6.55494 8.01214 5.92355 5.12007H5.92232Z" fill="#0E1E28"/>
</svg>
